SplineFontDB: 3.0
FontName: Highbush
FullName: Highbush
FamilyName: Highbush
Weight: Regular
Copyright: 
Version: 
ItalicAngle: 0
UnderlinePosition: 0
UnderlineWidth: 0
Ascent: 819
Descent: 205
LayerCount: 2
Layer: 0 0 "Back"  1
Layer: 1 0 "Fore"  0
XUID: [1021 624 1477038033 722300]
OS2Version: 0
OS2_WeightWidthSlopeOnly: 0
OS2_UseTypoMetrics: 0
CreationTime: 1516555126
ModificationTime: 1520298954
PfmFamily: 17
TTFWeight: 400
TTFWidth: 5
LineGap: 92
VLineGap: 92
OS2TypoAscent: 0
OS2TypoAOffset: 1
OS2TypoDescent: 0
OS2TypoDOffset: 1
OS2TypoLinegap: 92
OS2WinAscent: 0
OS2WinAOffset: 1
OS2WinDescent: 0
OS2WinDOffset: 1
HheadAscent: 0
HheadAOffset: 1
HheadDescent: 0
HheadDOffset: 1
OS2Vendor: 'PfEd'
MarkAttachClasses: 1
DEI: 91125
Encoding: Custom
UnicodeInterp: none
NameList: Adobe Glyph List
DisplaySize: -24
AntiAlias: 1
FitToEm: 1
WinInfo: 0 16 6
BeginPrivate: 0
EndPrivate
Grid
-1024 716 m 0
 2048 716 l 0
-1024 397 m 0
 2048 397 l 0
  Named: "top" 
EndSplineSet
BeginChars: 73 73

StartChar: .notdef
Encoding: 0 0 0
Width: 1062
Flags: W
HStem: 0 1024<-2 998>
VStem: -2 1000<0 1024>
LayerCount: 2
Fore
SplineSet
-2 0 m 1
 -2 1024 l 1
 998 1024 l 1
 998 0 l 1
 -2 0 l 1
EndSplineSet
Validated: 1
EndChar

StartChar: A
Encoding: 1 65 1
Width: 337
Flags: HW
HStem: 0 21G<30 60.5 212.5 243> 304 92<94.9661 178.008> 609 91<95.8845 177.406>
VStem: 0 91<4.42505 300.034 399.966 604.676> 182 91<4.42505 299.605 400.395 603.392>
LayerCount: 2
Fore
SplineSet
136 700 m 0
 213 700 273 669 273 593 c 2
 273 411 l 1
 273 289 l 1
 273 259 l 1
 273 167 l 1
 273 46 l 2
 273 15 258 0 228 0 c 0
 197 0 182 15 182 46 c 2
 182 167 l 1
 182 259 l 2
 182 289 167 304 136 304 c 0
 106 304 91 289 91 259 c 2
 91 183 l 1
 91 167 l 1
 91 46 l 2
 91 15 76 0 45 0 c 0
 15 0 0 15 0 46 c 2
 0 167 l 1
 0 183 l 1
 0 289 l 1
 0 411 l 1
 0 533 l 1
 0 593 l 1
 0 603 l 2
 0 612 1 620 4 627 c 1
 20 679 73 700 136 700 c 0
136 609 m 0
 106 609 91 593 91 563 c 2
 91 441 l 2
 91 411 106 396 136 396 c 0
 167 396 182 411 182 441 c 2
 182 533 l 1
 182 563 l 2
 182 593 167 609 136 609 c 0
EndSplineSet
Validated: 1
EndChar

StartChar: B
Encoding: 2 66 2
Width: 337
Flags: HW
LayerCount: 2
Fore
SplineSet
136 700 m 0
 212 700 273 669 273 593 c 2
 273 411 l 2
 273 386 267 366 255 350 c 1
 267 334 273 314 273 289 c 2
 273 107 l 2
 273 31 212 0 136 0 c 0
 60 0 0 31 0 107 c 2
 0 167 l 1
 0 533 l 1
 0 593 l 2
 0 669 60 700 136 700 c 0
136 609 m 0
 106 609 91 593 91 563 c 2
 91 533 l 1
 91 441 l 2
 91 411 106 396 136 396 c 0
 166 396 182 411 182 441 c 2
 182 563 l 2
 182 593 166 609 136 609 c 0
136 304 m 0
 106 304 91 289 91 259 c 2
 91 167 l 1
 91 137 l 2
 91 107 106 91 136 91 c 0
 166 91 182 107 182 137 c 2
 182 259 l 2
 182 289 166 304 136 304 c 0
EndSplineSet
Validated: 1
EndChar

StartChar: C
Encoding: 3 67 3
Width: 337
Flags: HW
LayerCount: 2
Fore
SplineSet
136 700 m 0
 182 700 273 685 273 563 c 0
 273 533 258 517 228 517 c 0
 198 517 182 533 182 563 c 0
 182 578 182 609 136 609 c 0
 92 609 91 581 91 565 c 0
 91 564 91 564 91 563 c 2
 91 137 l 2
 91 136 91 136 91 135 c 0
 91 119 92 91 136 91 c 0
 182 91 182 122 182 137 c 0
 182 167 198 183 228 183 c 0
 258 183 273 167 273 137 c 0
 273 15 182 0 136 0 c 0
 90 0 0 15 0 137 c 2
 0 563 l 2
 0 685 90 700 136 700 c 0
EndSplineSet
Validated: 1
EndChar

StartChar: D
Encoding: 4 68 4
Width: 337
Flags: HW
LayerCount: 2
Fore
SplineSet
45 700 m 2
 136 700 l 2
 227 700 273 654 273 563 c 2
 273 137 l 2
 273 46 227 0 136 0 c 2
 45 0 l 2
 15 0 0 16 0 46 c 2
 0 654 l 2
 0 684 15 700 45 700 c 2
91 609 m 1
 91 91 l 1
 136 91 l 2
 165 91 182 106 182 135 c 0
 182 135 182 136 182 137 c 2
 182 563 l 2
 182 593 166 609 136 609 c 2
 91 609 l 1
EndSplineSet
Validated: 1
EndChar

StartChar: E
Encoding: 5 69 5
Width: 337
Flags: HW
LayerCount: 2
Fore
SplineSet
136 700 m 2
 227 700 l 2
 257 700 273 684 273 654 c 0
 273 624 257 609 227 609 c 2
 136 609 l 2
 106 609 91 593 91 563 c 2
 91 396 l 1
 182 396 l 2
 212 396 227 380 227 350 c 0
 227 320 212 304 182 304 c 2
 91 304 l 1
 91 137 l 2
 91 107 106 91 136 91 c 2
 227 91 l 2
 257 91 273 76 273 46 c 0
 273 16 257 0 227 0 c 2
 136 0 l 2
 45 0 0 46 0 137 c 2
 0 563 l 2
 0 654 45 700 136 700 c 2
EndSplineSet
Validated: 1
EndChar

StartChar: F
Encoding: 6 70 6
Width: 337
Flags: HW
LayerCount: 2
Fore
SplineSet
136 700 m 2
 227 700 l 2
 257 700 273 684 273 654 c 0
 273 624 257 609 227 609 c 2
 136 609 l 2
 106 609 91 593 91 563 c 2
 91 396 l 1
 179 396 l 2
 209 396 224 380 224 350 c 0
 224 320 209 304 179 304 c 2
 91 304 l 1
 91 46 l 2
 91 16 75 0 45 0 c 0
 15 0 0 16 0 46 c 2
 0 563 l 2
 0 654 45 700 136 700 c 2
EndSplineSet
Validated: 1
EndChar

StartChar: G
Encoding: 7 71 7
Width: 337
Flags: HW
LayerCount: 2
Fore
SplineSet
136 700 m 0
 182 700 273 685 273 563 c 0
 273 533 258 517 228 517 c 0
 198 517 182 533 182 563 c 0
 182 578 182 609 136 609 c 0
 92 609 91 581 91 565 c 0
 91 564 91 564 91 563 c 2
 91 137 l 2
 91 136 91 136 91 135 c 0
 91 119 92 91 136 91 c 0
 182 91 182 122 182 137 c 2
 182 304 l 1
 152 304 136 326 136 350 c 0
 136 371 152 396 182 396 c 2
 228 396 l 2
 259 396 273 371 273 350 c 2
 273 137 l 2
 273 15 182 0 136 0 c 0
 90 0 0 15 0 137 c 2
 0 563 l 2
 0 685 90 700 136 700 c 0
EndSplineSet
Validated: 1
EndChar

StartChar: H
Encoding: 8 72 8
Width: 337
Flags: HW
LayerCount: 2
Fore
SplineSet
45 700 m 0
 75 700 91 684 91 654 c 2
 91 441 l 2
 91 411 109 396 136 396 c 0
 163 396 182 411 182 441 c 2
 182 654 l 2
 182 683 195 698 222 700 c 0
 224 700 226 700 228 700 c 0
 258 700 273 684 273 654 c 2
 273 46 l 2
 273 17 260 2 233 0 c 0
 231 0 230 0 228 0 c 0
 198 0 182 16 182 46 c 2
 182 259 l 2
 182 289 163 304 136 304 c 0
 109 304 91 289 91 259 c 2
 91 46 l 2
 91 16 75 0 45 0 c 0
 15 0 0 16 0 46 c 2
 0 654 l 2
 0 684 15 700 45 700 c 0
EndSplineSet
Validated: 1
EndChar

StartChar: I
Encoding: 9 73 9
Width: 337
Flags: W
HStem: 0 91<4.39453 85.9304 186.626 268.594> 609 91<4.39453 85.9304 186.626 268.594>
VStem: 91 91<95.6265 604.374>
LayerCount: 2
Fore
SplineSet
45 700 m 2
 228 700 l 2
 258 700 273 684 273 654 c 0
 272 624 258 609 228 609 c 0
 198 609 182 593 182 563 c 2
 182 137 l 2
 182 107 198 91 228 91 c 0
 258 91 272 76 273 46 c 0
 273 16 258 0 228 0 c 2
 45 0 l 2
 15 0 0 16 0 46 c 0
 0 76 15 91 45 91 c 0
 75 91 90 107 91 137 c 2
 91 563 l 2
 90 593 75 609 45 609 c 0
 15 609 0 624 0 654 c 0
 0 684 15 700 45 700 c 2
EndSplineSet
Validated: 1
EndChar

StartChar: J
Encoding: 10 74 10
Width: 338
Flags: HW
LayerCount: 2
Fore
SplineSet
274 137 m 2
 274 46 228 0 137 0 c 2
 45 0 l 2
 15 0 0 16 0 46 c 0
 0 76 15 91 45 91 c 2
 137 91 l 2
 167 91 183 107 183 137 c 2
 183 654 l 2
 183 684 199 700 229 700 c 0
 259 700 274 684 274 654 c 2
 274 137 l 2
EndSplineSet
Validated: 1
EndChar

StartChar: K
Encoding: 11 75 11
Width: 362
Flags: HW
LayerCount: 2
Fore
SplineSet
45 700 m 0
 75 700 91 684 91 654 c 2
 91 476 l 1
 211 668 l 1
 221 685 233 693 247 693 c 0
 255 693 264 690 273 685 c 0
 290 675 298 663 298 648 c 0
 298 640 295 631 290 622 c 1
 121 352 l 1
 290 78 l 2
 295 69 298 60 298 52 c 0
 298 37 290 25 273 15 c 0
 264 10 255 7 247 7 c 0
 233 7 221 15 211 32 c 2
 91 227 l 1
 91 46 l 2
 91 16 75 0 45 0 c 0
 15 0 0 16 0 46 c 2
 0 654 l 2
 0 684 15 700 45 700 c 0
EndSplineSet
Validated: 1
EndChar

StartChar: L
Encoding: 12 76 12
Width: 336
Flags: HW
LayerCount: 2
Fore
SplineSet
0 137 m 2
 0 654 l 2
 0 684 15 700 45 700 c 0
 75 700 91 684 91 654 c 2
 91 137 l 2
 91 107 120 91 150 91 c 2
 227 91 l 2
 257 91 272 76 272 46 c 0
 272 16 257 0 227 0 c 2
 150 0 l 2
 59 0 0 46 0 137 c 2
EndSplineSet
Validated: 1
EndChar

StartChar: M
Encoding: 13 77 13
Width: 459
Flags: HW
LayerCount: 2
Fore
SplineSet
0 578 m 2
 0 654 45 700 121 700 c 2
 273 700 l 2
 349 700 395 654 395 578 c 2
 395 46 l 2
 395 16 379 0 349 0 c 0
 319 0 304 16 304 46 c 2
 304 578 l 2
 304 596 291 609 273 609 c 0
 255 609 243 596 243 578 c 2
 243 46 l 2
 243 16 227 0 197 0 c 0
 167 0 152 16 152 46 c 2
 152 578 l 2
 152 596 139 609 121 609 c 0
 103 609 91 596 91 578 c 2
 91 46 l 2
 91 16 75 0 45 0 c 0
 15 0 0 16 0 46 c 2
 0 578 l 2
EndSplineSet
Validated: 1
EndChar

StartChar: N
Encoding: 14 78 14
Width: 337
Flags: HW
LayerCount: 2
Fore
SplineSet
273 46 m 2
 273 16 258 0 228 0 c 0
 198 0 182 16 182 46 c 2
 182 563 l 2
 182 578 182 609 136 609 c 0
 92 609 91 581 91 565 c 0
 91 564 91 564 91 563 c 2
 91 46 l 2
 91 16 75 0 45 0 c 0
 15 0 0 16 0 46 c 2
 0 563 l 2
 0 685 90 700 136 700 c 0
 182 700 273 685 273 563 c 2
 273 46 l 2
EndSplineSet
Validated: 1
EndChar

StartChar: O
Encoding: 15 79 15
Width: 337
Flags: W
HStem: 0 91<94.6525 177.679> 609 91<94.6525 177.679>
VStem: 0 91<96.0859 603.914> 182 91<96.0859 603.914>
LayerCount: 2
Fore
SplineSet
136 700 m 0
 182 700 273 685 273 563 c 2
 273 137 l 2
 273 15 182 0 136 0 c 0
 90 0 0 15 0 137 c 2
 0 563 l 2
 0 685 90 700 136 700 c 0
136 609 m 0
 92 609 91 581 91 565 c 0
 91 564 91 564 91 563 c 2
 91 137 l 2
 91 136 91 136 91 135 c 0
 91 119 92 91 136 91 c 0
 182 91 182 122 182 137 c 2
 182 563 l 2
 182 578 182 609 136 609 c 0
EndSplineSet
Validated: 1
EndChar

StartChar: P
Encoding: 16 80 16
Width: 337
Flags: HW
LayerCount: 2
Fore
SplineSet
0 46 m 2
 0 593 l 2
 0 669 60 700 136 700 c 0
 212 700 273 669 273 593 c 2
 273 411 l 2
 273 335 212 304 136 304 c 2
 91 304 l 1
 91 46 l 2
 91 16 75 0 45 0 c 0
 15 0 0 16 0 46 c 2
136 396 m 0
 166 396 182 411 182 441 c 2
 182 563 l 2
 182 593 166 609 136 609 c 0
 106 609 91 593 91 563 c 2
 91 441 l 2
 91 411 106 396 136 396 c 0
EndSplineSet
Validated: 1
EndChar

StartChar: Q
Encoding: 17 81 17
Width: 337
Flags: HW
LayerCount: 2
Fore
SplineSet
136 700 m 0
 182 700 273 685 273 563 c 2
 273 213 l 2
 273 125 226 93 182 82 c 1
 182 46 l 2
 182 16 166 0 136 0 c 0
 106 0 91 16 91 46 c 2
 91 82 l 1
 47 93 0 125 0 213 c 2
 0 563 l 2
 0 685 90 700 136 700 c 0
136 609 m 0
 92 609 91 581 91 565 c 0
 91 564 91 564 91 563 c 2
 91 213 l 2
 91 212 91 212 91 211 c 0
 91 195 92 167 136 167 c 0
 182 167 182 198 182 213 c 2
 182 563 l 2
 182 578 182 609 136 609 c 0
EndSplineSet
Validated: 1
EndChar

StartChar: R
Encoding: 18 82 18
Width: 337
Flags: HW
LayerCount: 2
Fore
SplineSet
136 700 m 0
 212 700 273 669 273 593 c 2
 273 411 l 2
 273 384 266 362 252 346 c 1
 266 324 273 295 273 259 c 2
 273 46 l 2
 273 16 258 0 228 0 c 0
 198 0 182 16 182 46 c 2
 182 259 l 2
 182 289 166 304 136 304 c 2
 91 304 l 1
 91 46 l 2
 91 16 75 0 45 0 c 0
 15 0 0 16 0 46 c 2
 0 593 l 2
 0 669 60 700 136 700 c 0
136 609 m 0
 106 609 91 593 91 563 c 2
 91 441 l 2
 91 411 106 396 136 396 c 0
 166 396 182 411 182 441 c 2
 182 563 l 2
 182 593 166 609 136 609 c 0
EndSplineSet
Validated: 1
EndChar

StartChar: S
Encoding: 19 83 19
Width: 337
Flags: HW
LayerCount: 2
Fore
SplineSet
136 700 m 0
 197 700 l 2
 227 700 243 684 243 654 c 0
 243 624 227 609 197 609 c 2
 136 609 l 2
 106 609 91 608 91 578 c 2
 91 548 l 1
 91 502 l 1
 91 426 l 2
 91 396 106 396 136 396 c 0
 227 396 273 365 273 274 c 2
 273 213 l 1
 273 183 l 1
 273 122 l 2
 273 31 227 0 136 0 c 2
 60 0 l 2
 30 0 15 16 15 46 c 0
 15 76 30 91 60 91 c 2
 136 91 l 2
 166 91 182 92 182 122 c 2
 182 183 l 1
 182 213 l 1
 182 274 l 2
 182 304 166 304 136 304 c 0
 45 304 0 335 0 426 c 2
 0 502 l 1
 0 548 l 1
 0 578 l 2
 0 669 45 700 136 700 c 0
EndSplineSet
Validated: 1
EndChar

StartChar: T
Encoding: 20 84 20
Width: 337
Flags: HW
LayerCount: 2
Fore
SplineSet
45 700 m 2
 228 700 l 2
 258 700 273 684 273 654 c 0
 272 624 258 609 228 609 c 0
 198 609 182 593 182 563 c 2
 182 46 l 2
 182 16 166 0 136 0 c 0
 106 0 91 16 91 46 c 2
 91 563 l 2
 90 593 75 609 45 609 c 0
 15 609 0 624 0 654 c 0
 0 684 15 700 45 700 c 2
EndSplineSet
Validated: 1
EndChar

StartChar: U
Encoding: 21 85 21
Width: 337
Flags: HW
LayerCount: 2
Fore
SplineSet
0 654 m 2
 0 684 15 700 45 700 c 0
 75 700 91 684 91 654 c 2
 91 137 l 2
 91 136 91 136 91 135 c 0
 91 119 92 91 136 91 c 0
 182 91 182 122 182 137 c 2
 182 654 l 2
 182 684 198 700 228 700 c 0
 258 700 273 684 273 654 c 2
 273 137 l 2
 273 15 182 0 136 0 c 0
 90 0 0 15 0 137 c 2
 0 654 l 2
EndSplineSet
Validated: 1
EndChar

StartChar: V
Encoding: 22 86 22
Width: 352
Flags: HW
LayerCount: 2
Fore
SplineSet
240 695 m 0
 248 695 257 692 267 686 c 0
 283 677 288 666 288 653 c 0
 288 645 286 635 284 624 c 2
 189 30 l 1
 174 0 158 0 143 0 c 0
 128 0 113 0 98 30 c 1
 3 624 l 2
 1 635 -1 645 -1 653 c 0
 -1 666 4 677 20 686 c 0
 29 691 38 694 46 694 c 0
 60 694 72 686 82 669 c 1
 144 259 l 1
 205 670 l 1
 215 686 226 695 240 695 c 0
EndSplineSet
Validated: 1
EndChar

StartChar: W
Encoding: 23 87 23
Width: 459
Flags: HW
LayerCount: 2
Fore
SplineSet
0 122 m 2
 0 654 l 2
 0 684 15 700 45 700 c 0
 75 700 91 684 91 654 c 2
 91 122 l 2
 91 104 103 91 121 91 c 0
 139 91 152 104 152 122 c 2
 152 654 l 2
 152 684 167 700 197 700 c 0
 227 700 243 684 243 654 c 2
 243 122 l 2
 243 104 255 91 273 91 c 0
 291 91 304 104 304 122 c 2
 304 654 l 2
 304 684 319 700 349 700 c 0
 379 700 395 684 395 654 c 2
 395 122 l 2
 395 46 349 0 273 0 c 2
 121 0 l 2
 45 0 0 46 0 122 c 2
EndSplineSet
Validated: 1
EndChar

StartChar: X
Encoding: 24 88 24
Width: 354
Flags: HW
LayerCount: 2
Fore
SplineSet
52 700 m 0
 66 700 77 691 87 675 c 1
 145 496 l 1
 203 675 l 1
 213 692 225 700 239 700 c 0
 247 700 256 697 265 692 c 0
 282 682 290 670 290 655 c 0
 290 647 287 638 282 629 c 1
 197 356 l 1
 282 71 l 1
 287 62 290 53 290 45 c 0
 290 30 282 18 265 8 c 0
 256 3 247 0 239 0 c 0
 225 0 213 8 203 25 c 1
 145 192 l 1
 87 25 l 1
 77 8 65 0 51 0 c 0
 43 0 34 3 25 8 c 0
 8 18 0 30 0 45 c 0
 0 53 3 62 8 71 c 1
 92 356 l 1
 8 629 l 1
 3 638 0 647 0 655 c 0
 0 670 8 682 25 692 c 0
 35 698 44 700 52 700 c 0
EndSplineSet
Validated: 1
EndChar

StartChar: Y
Encoding: 25 89 25
Width: 355
Flags: HW
LayerCount: 2
Fore
SplineSet
242 695 m 0
 250 695 259 692 269 686 c 0
 285 677 291 666 291 652 c 0
 291 644 289 635 286 624 c 2
 191 335 l 1
 191 46 l 2
 191 16 175 0 145 0 c 0
 115 0 100 16 100 46 c 2
 100 335 l 1
 5 624 l 2
 2 635 0 644 0 652 c 0
 0 666 6 677 22 686 c 0
 31 691 40 694 48 694 c 0
 62 694 74 686 84 669 c 1
 146 454 l 1
 207 670 l 1
 217 686 228 695 242 695 c 0
EndSplineSet
Validated: 1
EndChar

StartChar: Z
Encoding: 26 90 26
Width: 337
Flags: HW
LayerCount: 2
Fore
SplineSet
57 685 m 2
 228 685 l 2
 258 685 273 669 273 639 c 1
 109 91 l 1
 216 91 l 2
 246 91 261 76 261 46 c 0
 261 16 246 0 216 0 c 2
 45 0 l 2
 15 0 0 16 0 46 c 1
 164 593 l 1
 57 593 l 2
 27 593 12 609 12 639 c 0
 12 669 27 685 57 685 c 2
EndSplineSet
Validated: 1
EndChar

StartChar: a
Encoding: 27 97 27
Width: 337
Flags: HW
LayerCount: 2
Fore
SplineSet
273 122 m 2
 273 46 227 0 136 0 c 0
 45 0 0 46 0 122 c 0
 0 198 29 243 136 243 c 2
 182 243 l 1
 182 274 l 2
 182 289 167 304 152 304 c 2
 45 304 l 2
 15 304 0 320 0 350 c 0
 0 380 15 396 45 396 c 2
 152 396 l 2
 228 396 273 350 273 274 c 2
 273 122 l 2
136 91 m 0
 166 91 182 107 182 122 c 0
 182 137 166 152 136 152 c 0
 106 152 91 137 91 122 c 0
 91 107 106 91 136 91 c 0
EndSplineSet
Validated: 1
EndChar

StartChar: b
Encoding: 28 98 28
Width: 337
Flags: HW
LayerCount: 2
Fore
SplineSet
0 533 m 2
 0 563 15 578 45 578 c 0
 75 578 91 563 91 533 c 2
 91 396 l 1
 136 396 l 2
 212 396 273 365 273 289 c 2
 273 107 l 2
 273 31 212 0 136 0 c 0
 60 0 0 31 0 107 c 2
 0 533 l 2
136 304 m 0
 106 304 91 289 91 259 c 2
 91 137 l 2
 91 107 106 91 136 91 c 0
 166 91 182 107 182 137 c 2
 182 259 l 2
 182 289 166 304 136 304 c 0
EndSplineSet
Validated: 1
EndChar

StartChar: c
Encoding: 29 99 29
Width: 337
Flags: HW
LayerCount: 2
Fore
SplineSet
136 396 m 0
 182 396 273 381 273 259 c 0
 273 229 258 213 228 213 c 0
 198 213 182 229 182 259 c 0
 182 274 182 304 136 304 c 0
 92 304 91 276 91 261 c 0
 91 260 91 260 91 259 c 2
 91 137 l 2
 91 136 91 136 91 135 c 0
 91 119 92 91 136 91 c 0
 182 91 182 122 182 137 c 0
 182 167 198 183 228 183 c 0
 258 183 273 167 273 137 c 0
 273 15 182 0 136 0 c 0
 90 0 0 15 0 137 c 2
 0 259 l 2
 0 381 90 396 136 396 c 0
EndSplineSet
Validated: 1
EndChar

StartChar: d
Encoding: 30 100 30
Width: 337
Flags: HW
LayerCount: 2
Fore
SplineSet
273 533 m 2
 273 107 l 2
 273 31 212 0 136 0 c 0
 60 0 0 31 0 107 c 2
 0 289 l 2
 0 365 60 396 136 396 c 2
 182 396 l 1
 182 533 l 2
 182 563 198 578 228 578 c 0
 258 578 273 563 273 533 c 2
136 304 m 0
 106 304 91 289 91 259 c 2
 91 137 l 2
 91 107 106 91 136 91 c 0
 166 91 182 107 182 137 c 2
 182 259 l 2
 182 289 166 304 136 304 c 0
EndSplineSet
Validated: 1
EndChar

StartChar: e
Encoding: 31 101 31
Width: 337
Flags: HW
LayerCount: 2
Fore
SplineSet
0 274 m 2
 0 350 45 396 136 396 c 0
 227 396 273 350 273 274 c 0
 273 198 243 152 136 152 c 2
 91 152 l 1
 91 122 l 2
 91 107 106 91 121 91 c 2
 228 91 l 2
 258 91 273 76 273 46 c 0
 273 16 258 0 228 0 c 2
 121 0 l 2
 45 0 0 46 0 122 c 2
 0 274 l 2
136 304 m 0
 106 304 91 289 91 274 c 0
 91 259 106 243 136 243 c 0
 166 243 182 259 182 274 c 0
 182 289 166 304 136 304 c 0
EndSplineSet
Validated: 1
EndChar

StartChar: f
Encoding: 32 102 32
Width: 307
Flags: HW
LayerCount: 2
Fore
SplineSet
136 578 m 2
 197 578 l 2
 227 578 243 563 243 533 c 0
 243 503 227 487 197 487 c 2
 136 487 l 2
 106 487 91 471 91 441 c 2
 91 320 l 1
 149 320 l 2
 179 320 194 304 194 274 c 0
 194 244 179 228 149 228 c 2
 91 228 l 1
 91 46 l 2
 91 16 75 0 45 0 c 0
 15 0 0 16 0 46 c 2
 0 441 l 2
 0 532 45 578 136 578 c 2
EndSplineSet
Validated: 1
EndChar

StartChar: g
Encoding: 33 103 33
Width: 337
Flags: HW
LayerCount: 2
Fore
SplineSet
136 395 m 0
 212 395 273 365 273 289 c 2
 273 45 l 1
 273 -40 l 1
 273 -107 l 2
 273 -214 243 -244 136 -244 c 2
 45 -244 l 2
 15 -244 0 -228 0 -198 c 0
 0 -168 15 -153 45 -153 c 2
 136 -153 l 2
 166 -153 182 -137 182 -107 c 2
 182 -40 l 1
 182 -1 l 1
 136 -1 l 2
 60 -1 0 30 0 106 c 2
 0 289 l 2
 0 365 60 395 136 395 c 0
136 304 m 0
 106 304 91 288 91 258 c 2
 91 136 l 2
 91 106 106 91 136 91 c 0
 166 91 182 106 182 136 c 2
 182 258 l 2
 182 288 166 304 136 304 c 0
EndSplineSet
Validated: 1
EndChar

StartChar: h
Encoding: 34 104 34
Width: 337
Flags: HW
LayerCount: 2
Fore
SplineSet
45 648 m 0
 75 648 91 633 91 603 c 2
 91 396 l 1
 136 396 l 2
 212 396 273 366 273 259 c 2
 273 46 l 2
 273 16 258 0 228 0 c 0
 198 0 182 16 182 46 c 2
 182 259 l 2
 182 289 166 304 136 304 c 0
 106 304 91 289 91 259 c 2
 91 46 l 2
 91 16 75 0 45 0 c 0
 15 0 0 16 0 46 c 2
 0 603 l 2
 0 633 15 648 45 648 c 0
EndSplineSet
Validated: 1
EndChar

StartChar: i
Encoding: 35 105 35
Width: 155
Flags: HW
LayerCount: 2
Fore
SplineSet
0 351 m 2
 0 381 15 397 45 397 c 0
 75 397 91 381 91 351 c 2
 91 46 l 2
 91 16 75 0 45 0 c 0
 15 0 0 16 0 46 c 2
 0 351 l 2
0 458 m 4
 0 488 15 504 45 504 c 4
 75 504 91 488 91 458 c 4
 91 428 75 412 45 412 c 4
 15 412 0 428 0 458 c 4
EndSplineSet
Validated: 1
EndChar

StartChar: j
Encoding: 36 106 36
Width: 337
Flags: HW
LayerCount: 2
Fore
SplineSet
182 457 m 0
 182 487 198 503 228 503 c 0
 258 503 273 487 273 457 c 0
 273 427 258 412 228 412 c 0
 198 412 182 427 182 457 c 0
182 -92 m 2
 182 351 l 2
 182 381 198 397 228 397 c 0
 258 397 273 381 273 351 c 2
 273 -92 l 2
 273 -199 243 -244 136 -244 c 2
 45 -244 l 2
 15 -244 0 -228 0 -198 c 0
 0 -168 15 -153 45 -153 c 2
 136 -153 l 2
 166 -153 182 -122 182 -92 c 2
EndSplineSet
Validated: 1
EndChar

StartChar: k
Encoding: 37 107 37
Width: 382
Flags: HW
LayerCount: 2
Fore
SplineSet
45 578 m 0
 75 578 91 563 91 533 c 2
 91 366 l 1
 130 405 l 2
 141 416 151 422 162 422 c 0
 173 422 184 416 195 405 c 0
 206 394 212 383 212 372 c 0
 212 361 206 351 195 340 c 2
 152 297 l 2
 141 286 136 275 136 265 c 0
 136 255 141 244 152 233 c 2
 302 82 l 2
 313 71 318 60 318 50 c 0
 318 40 313 29 302 18 c 0
 291 7 280 2 270 2 c 0
 260 2 249 7 238 18 c 2
 91 165 l 1
 91 46 l 2
 91 16 75 0 45 0 c 0
 15 0 0 16 0 46 c 2
 0 533 l 2
 0 563 15 578 45 578 c 0
EndSplineSet
Validated: 1
EndChar

StartChar: l
Encoding: 38 108 38
Width: 155
Flags: HW
LayerCount: 2
Fore
SplineSet
45 578 m 0
 75 578 91 563 91 533 c 2
 91 46 l 2
 91 16 75 0 45 0 c 0
 15 0 0 16 0 46 c 2
 0 533 l 2
 0 563 15 578 45 578 c 0
EndSplineSet
Validated: 1
EndChar

StartChar: m
Encoding: 39 109 39
Width: 459
Flags: HW
LayerCount: 2
Fore
SplineSet
0 274 m 2
 0 350 45 396 121 396 c 2
 273 396 l 2
 349 396 395 350 395 274 c 2
 395 46 l 2
 395 16 379 0 349 0 c 0
 319 0 304 16 304 46 c 2
 304 274 l 2
 304 292 291 304 273 304 c 0
 255 304 243 292 243 274 c 2
 243 46 l 2
 243 16 227 0 197 0 c 0
 167 0 152 16 152 46 c 2
 152 274 l 2
 152 292 139 304 121 304 c 0
 103 304 91 292 91 274 c 2
 91 46 l 2
 91 16 75 0 45 0 c 0
 15 0 0 16 0 46 c 2
 0 274 l 2
EndSplineSet
Validated: 1
EndChar

StartChar: n
Encoding: 40 110 40
Width: 337
Flags: HW
LayerCount: 2
Fore
SplineSet
273 46 m 2
 273 16 258 0 228 0 c 0
 198 0 182 16 182 46 c 2
 182 259 l 2
 182 274 182 304 136 304 c 0
 92 304 91 276 91 261 c 0
 91 260 91 260 91 259 c 2
 91 46 l 2
 91 16 75 0 45 0 c 0
 15 0 0 16 0 46 c 2
 0 259 l 2
 0 381 90 396 136 396 c 0
 182 396 273 381 273 259 c 2
 273 46 l 2
EndSplineSet
Validated: 1
EndChar

StartChar: o
Encoding: 41 111 41
Width: 337
Flags: W
HStem: 0 91<94.6525 177.679> 313 92<94.6525 177.864>
VStem: 0 91<96.0859 308.914> 182 91<96.0859 308.914>
LayerCount: 2
Fore
SplineSet
136 405 m 0
 182 405 273 390 273 268 c 2
 273 137 l 2
 273 15 182 0 136 0 c 0
 90 0 0 15 0 137 c 2
 0 268 l 2
 0 390 90 405 136 405 c 0
136 313 m 0
 92 313 91 285 91 270 c 0
 91 269 91 269 91 268 c 2
 91 137 l 2
 91 136 91 136 91 135 c 0
 91 119 92 91 136 91 c 0
 182 91 182 122 182 137 c 2
 182 268 l 2
 182 283 182 313 136 313 c 0
EndSplineSet
Validated: 1
EndChar

StartChar: p
Encoding: 42 112 42
Width: 337
Flags: HW
LayerCount: 2
Fore
SplineSet
0 -136 m 2
 0 290 l 2
 0 366 60 396 136 396 c 0
 212 396 273 366 273 290 c 2
 273 107 l 2
 273 31 212 1 136 1 c 2
 91 1 l 1
 91 -136 l 2
 91 -166 75 -182 45 -182 c 0
 15 -182 0 -166 0 -136 c 2
136 92 m 0
 166 92 182 108 182 138 c 2
 182 259 l 2
 182 289 166 305 136 305 c 0
 106 305 91 289 91 259 c 2
 91 138 l 2
 91 108 106 92 136 92 c 0
EndSplineSet
Validated: 1
EndChar

StartChar: q
Encoding: 43 113 43
Width: 337
Flags: HW
LayerCount: 2
Fore
SplineSet
273 -136 m 2
 273 -166 258 -182 228 -182 c 0
 198 -182 182 -166 182 -136 c 2
 182 1 l 1
 136 1 l 2
 60 1 0 31 0 107 c 2
 0 290 l 2
 0 366 60 396 136 396 c 0
 212 396 273 366 273 290 c 2
 273 -136 l 2
136 92 m 0
 166 92 182 108 182 138 c 2
 182 259 l 2
 182 289 166 305 136 305 c 0
 106 305 91 289 91 259 c 2
 91 138 l 2
 91 108 106 92 136 92 c 0
EndSplineSet
Validated: 1
EndChar

StartChar: r
Encoding: 44 114 44
Width: 307
Flags: HW
LayerCount: 2
Fore
SplineSet
0 259 m 2
 0 350 45 396 136 396 c 2
 197 396 l 2
 227 396 243 380 243 350 c 0
 243 320 227 304 197 304 c 2
 136 304 l 2
 106 304 91 289 91 259 c 2
 91 46 l 2
 91 16 75 0 45 0 c 0
 15 0 0 16 0 46 c 2
 0 259 l 2
EndSplineSet
Validated: 1
EndChar

StartChar: s
Encoding: 45 115 45
Width: 337
Flags: HW
LayerCount: 2
Fore
SplineSet
136 396 m 2
 197 396 l 2
 227 396 243 380 243 350 c 0
 243 320 227 304 197 304 c 2
 136 304 l 2
 106 304 91 304 91 274 c 0
 91 244 106 243 136 243 c 0
 227 243 273 213 273 122 c 0
 273 31 227 0 136 0 c 2
 60 0 l 2
 30 0 15 16 15 46 c 0
 15 76 30 91 60 91 c 2
 136 91 l 2
 166 91 182 92 182 122 c 0
 182 152 166 152 136 152 c 0
 45 152 0 183 0 274 c 0
 0 365 45 396 136 396 c 2
EndSplineSet
Validated: 1
EndChar

StartChar: t
Encoding: 46 116 46
Width: 307
Flags: HW
LayerCount: 2
Fore
SplineSet
136 0 m 2
 45 0 0 46 0 137 c 2
 0 533 l 2
 0 563 15 578 45 578 c 0
 75 578 91 563 91 533 c 2
 91 397 l 1
 197 397 l 2
 227 397 243 381 243 351 c 0
 243 321 227 306 197 306 c 2
 91 306 l 1
 91 137 l 2
 91 107 106 91 136 91 c 2
 197 91 l 2
 227 91 243 76 243 46 c 0
 243 16 227 0 197 0 c 2
 136 0 l 2
EndSplineSet
Validated: 1
EndChar

StartChar: u
Encoding: 47 117 47
Width: 337
Flags: HW
LayerCount: 2
Fore
SplineSet
0 350 m 2
 0 380 15 396 45 396 c 0
 75 396 91 380 91 350 c 2
 91 137 l 2
 91 136 91 136 91 135 c 0
 91 119 92 91 136 91 c 0
 182 91 182 122 182 137 c 2
 182 350 l 2
 182 380 198 396 228 396 c 0
 258 396 273 380 273 350 c 2
 273 137 l 2
 273 15 182 0 136 0 c 0
 90 0 0 15 0 137 c 2
 0 350 l 2
EndSplineSet
Validated: 1
EndChar

StartChar: v
Encoding: 48 118 48
Width: 355
Flags: HW
LayerCount: 2
Fore
SplineSet
242 390 m 0
 250 390 259 388 269 382 c 0
 285 373 291 362 291 348 c 0
 291 340 289 331 286 320 c 2
 191 30 l 1
 176 0 160 0 145 0 c 0
 130 0 115 0 100 30 c 1
 5 320 l 2
 2 331 0 340 0 348 c 0
 0 362 6 373 22 382 c 0
 31 387 40 390 48 390 c 0
 62 390 74 382 84 365 c 1
 146 150 l 1
 207 365 l 1
 217 381 228 390 242 390 c 0
EndSplineSet
Validated: 1
EndChar

StartChar: w
Encoding: 49 119 49
Width: 459
Flags: HW
LayerCount: 2
Fore
SplineSet
0 122 m 2
 0 350 l 2
 0 380 15 396 45 396 c 0
 75 396 91 380 91 350 c 2
 91 122 l 2
 91 104 103 91 121 91 c 0
 139 91 152 104 152 122 c 2
 152 350 l 2
 152 380 167 396 197 396 c 0
 227 396 243 380 243 350 c 2
 243 122 l 2
 243 104 255 91 273 91 c 0
 291 91 304 104 304 122 c 2
 304 350 l 2
 304 380 319 396 349 396 c 0
 379 396 395 380 395 350 c 2
 395 122 l 2
 395 46 349 0 273 0 c 2
 121 0 l 2
 45 0 0 46 0 122 c 2
EndSplineSet
Validated: 1
EndChar

StartChar: x
Encoding: 50 120 50
Width: 354
Flags: W
HStem: 0 21G<47 58 232 243> 0 21G<47 58 232 243> 376 20G<48 59 231 242>
VStem: 0 290<30 53 343 365>
LayerCount: 2
Fore
SplineSet
52 396 m 0xb0
 66 396 77 387 87 371 c 2
 145 277 l 1
 203 371 l 2
 212 387 224 395 238 395 c 0
 246 395 255 393 265 387 c 0
 282 377 290 365 290 351 c 0
 290 343 287 334 282 325 c 1
 197 198 l 1
 282 71 l 1
 287 62 290 53 290 45 c 0
 290 30 282 18 265 8 c 0
 256 3 247 0 239 0 c 0
 225 0 213 8 203 25 c 2
 145 119 l 1
 87 25 l 2
 77 8 65 0 51 0 c 0
 43 0 34 3 25 8 c 0
 8 18 0 30 0 45 c 0
 0 53 3 62 8 71 c 1
 92 198 l 1
 8 325 l 1
 3 334 0 343 0 351 c 0
 0 365 8 377 25 387 c 0
 35 393 44 396 52 396 c 0xb0
EndSplineSet
Validated: 1
EndChar

StartChar: y
Encoding: 51 121 51
Width: 337
Flags: HW
LayerCount: 2
Fore
SplineSet
0 349 m 2
 0 379 15 395 45 395 c 0
 75 395 91 379 91 349 c 2
 91 136 l 2
 91 106 106 91 136 91 c 0
 166 91 182 106 182 136 c 2
 182 349 l 2
 182 379 198 395 228 395 c 0
 258 395 273 379 273 349 c 2
 273 -107 l 2
 273 -214 243 -244 136 -244 c 2
 45 -244 l 2
 15 -244 0 -228 0 -198 c 0
 0 -168 15 -153 45 -153 c 2
 136 -153 l 2
 166 -153 182 -137 182 -107 c 2
 182 -1 l 1
 136 -1 l 2
 60 -1 0 29 0 136 c 2
 0 349 l 2
EndSplineSet
Validated: 1
EndChar

StartChar: z
Encoding: 52 122 52
Width: 332
Flags: HW
LayerCount: 2
Fore
SplineSet
52 389 m 2
 223 389 l 2
 253 389 268 373 268 343 c 1
 121 91 l 1
 216 91 l 2
 246 91 261 76 261 46 c 0
 261 16 246 0 216 0 c 2
 45 0 l 2
 15 0 0 16 0 46 c 1
 146 298 l 1
 52 298 l 2
 22 298 6 313 6 343 c 0
 6 373 22 389 52 389 c 2
EndSplineSet
Validated: 1
EndChar

StartChar: zero
Encoding: 53 48 53
Width: 337
Flags: HW
LayerCount: 2
Fore
SplineSet
136 700 m 0
 182 700 273 685 273 563 c 2
 273 137 l 2
 273 15 182 0 136 0 c 0
 90 0 0 15 0 137 c 2
 0 563 l 2
 0 685 90 700 136 700 c 0
136 609 m 0
 92 609 91 581 91 565 c 0
 91 564 91 564 91 563 c 2
 91 137 l 2
 91 136 91 136 91 135 c 0
 91 119 92 91 136 91 c 0
 182 91 182 122 182 137 c 2
 182 563 l 2
 182 578 182 609 136 609 c 0
EndSplineSet
Validated: 1
EndChar

StartChar: one
Encoding: 54 49 54
Width: 337
Flags: HW
LayerCount: 2
Fore
SplineSet
182 563 m 2
 182 137 l 2
 182 107 198 91 228 91 c 0
 258 91 272 76 273 46 c 0
 273 16 258 0 228 0 c 2
 45 0 l 2
 15 0 0 16 0 46 c 0
 0 76 15 91 45 91 c 0
 75 91 90 107 91 137 c 2
 91 563 l 2
 90 593 75 609 45 609 c 0
 15 609 0 624 0 654 c 0
 0 684 15 700 45 700 c 2
 121 700 182 639 182 563 c 2
EndSplineSet
Validated: 1
EndChar

StartChar: two
Encoding: 55 50 55
Width: 337
Flags: HW
LayerCount: 2
Fore
SplineSet
136 0 m 0
 45 0 0 31 0 122 c 2
 0 152 l 1
 0 198 l 1
 0 274 l 2
 0 365 45 396 136 396 c 0
 166 396 182 396 182 426 c 2
 182 487 l 1
 182 517 l 1
 182 578 l 2
 182 608 166 609 136 609 c 2
 60 609 l 2
 30 609 15 624 15 654 c 0
 15 684 30 700 60 700 c 2
 136 700 l 2
 227 700 273 669 273 578 c 2
 273 517 l 1
 273 487 l 1
 273 426 l 2
 273 335 227 304 136 304 c 0
 106 304 91 304 91 274 c 2
 91 198 l 1
 91 152 l 1
 91 122 l 2
 91 92 106 91 136 91 c 2
 197 91 l 2
 227 91 243 76 243 46 c 0
 243 16 227 0 197 0 c 2
 136 0 l 0
EndSplineSet
Validated: 1
EndChar

StartChar: three
Encoding: 56 51 56
Width: 337
Flags: HW
LayerCount: 2
Fore
SplineSet
137 700 m 2
 228 700 273 654 273 563 c 2
 273 137 l 2
 273 46 228 0 137 0 c 2
 46 0 l 2
 16 0 0 16 0 46 c 0
 0 76 16 91 46 91 c 2
 137 91 l 2
 167 91 182 107 182 137 c 2
 182 304 l 1
 91 304 l 2
 61 304 46 320 46 350 c 0
 46 380 61 396 91 396 c 2
 182 396 l 1
 182 563 l 2
 182 593 167 609 137 609 c 2
 46 609 l 2
 16 609 0 624 0 654 c 0
 0 684 16 700 46 700 c 2
 137 700 l 2
EndSplineSet
Validated: 1
EndChar

StartChar: four
Encoding: 57 52 57
Width: 337
Flags: HW
LayerCount: 2
Fore
SplineSet
0 405 m 1
 0 654 l 2
 0 684 15 700 45 700 c 0
 75 700 91 684 91 654 c 2
 91 441 l 2
 91 411 109 396 136 396 c 0
 163 396 182 411 182 441 c 2
 182 654 l 2
 182 683 195 698 222 700 c 0
 224 700 226 700 228 700 c 0
 258 700 273 684 273 654 c 2
 273 46 l 2
 273 17 260 2 233 0 c 0
 231 0 230 0 228 0 c 0
 198 0 182 16 182 46 c 2
 182 259 l 2
 182 289 163 304 136 304 c 1
 69 307 4 315 0 405 c 1
EndSplineSet
Validated: 1
EndChar

StartChar: five
Encoding: 58 53 58
Width: 337
Flags: HW
LayerCount: 2
Fore
SplineSet
136 700 m 0
 197 700 l 2
 227 700 243 684 243 654 c 0
 243 624 227 609 197 609 c 2
 136 609 l 2
 106 609 91 608 91 578 c 2
 91 548 l 1
 91 502 l 1
 91 426 l 2
 91 396 106 396 136 396 c 0
 227 396 273 365 273 274 c 2
 273 213 l 1
 273 183 l 1
 273 122 l 2
 273 31 227 0 136 0 c 2
 60 0 l 2
 30 0 15 16 15 46 c 0
 15 76 30 91 60 91 c 2
 136 91 l 2
 166 91 182 92 182 122 c 2
 182 183 l 1
 182 213 l 1
 182 274 l 2
 182 304 166 304 136 304 c 0
 45 304 0 335 0 426 c 2
 0 502 l 1
 0 548 l 1
 0 578 l 2
 0 669 45 700 136 700 c 0
EndSplineSet
Validated: 1
EndChar

StartChar: six
Encoding: 59 54 59
Width: 337
Flags: HW
LayerCount: 2
Fore
SplineSet
0 653 m 2
 0 683 15 699 45 699 c 0
 75 699 91 683 91 653 c 2
 91 395 l 1
 136 395 l 2
 212 395 273 364 273 288 c 2
 273 106 l 2
 273 30 212 -1 136 -1 c 0
 60 -1 0 30 0 106 c 2
 0 653 l 2
136 303 m 0
 106 303 91 288 91 258 c 2
 91 136 l 2
 91 106 106 90 136 90 c 0
 166 90 182 106 182 136 c 2
 182 258 l 2
 182 288 166 303 136 303 c 0
EndSplineSet
Validated: 1
EndChar

StartChar: seven
Encoding: 60 55 60
Width: 336
Flags: HW
LayerCount: 2
Fore
SplineSet
272 565 m 6
 272 48 l 6
 272 18 257 2 227 2 c 4
 197 2 181 18 181 48 c 6
 181 565 l 6
 181 595 152 611 122 611 c 6
 45 611 l 6
 15 611 0 626 0 656 c 4
 0 686 15 702 45 702 c 6
 122 702 l 6
 213 702 272 656 272 565 c 6
EndSplineSet
Validated: 1
EndChar

StartChar: eight
Encoding: 61 56 61
Width: 337
Flags: HW
LayerCount: 2
Fore
SplineSet
136 700 m 0
 212 700 273 669 273 593 c 2
 273 411 l 2
 273 386 267 366 255 350 c 1
 267 334 273 314 273 289 c 2
 273 107 l 2
 273 31 212 0 136 0 c 0
 60 0 0 31 0 107 c 2
 0 167 l 1
 0 533 l 1
 0 593 l 2
 0 669 60 700 136 700 c 0
136 609 m 0
 106 609 91 593 91 563 c 2
 91 533 l 1
 91 441 l 2
 91 411 106 396 136 396 c 0
 166 396 182 411 182 441 c 2
 182 563 l 2
 182 593 166 609 136 609 c 0
136 304 m 0
 106 304 91 289 91 259 c 2
 91 167 l 1
 91 137 l 2
 91 107 106 91 136 91 c 0
 166 91 182 107 182 137 c 2
 182 259 l 2
 182 289 166 304 136 304 c 0
EndSplineSet
Validated: 1
EndChar

StartChar: nine
Encoding: 62 57 62
Width: 337
Flags: HW
LayerCount: 2
Fore
SplineSet
273 46 m 2
 273 16 258 0 228 0 c 0
 198 0 182 16 182 46 c 2
 182 304 l 1
 137 304 l 2
 61 304 0 335 0 411 c 2
 0 593 l 2
 0 669 61 700 137 700 c 0
 213 700 273 669 273 593 c 2
 273 46 l 2
137 396 m 0
 167 396 182 411 182 441 c 6
 182 563 l 2
 182 593 167 609 137 609 c 0
 107 609 91 593 91 563 c 2
 91 441 l 2
 91 411 107 396 137 396 c 0
EndSplineSet
Validated: 1
EndChar

StartChar: period
Encoding: 63 46 63
Width: 155
Flags: HW
LayerCount: 2
Fore
SplineSet
0 47 m 4
 0 77 15 93 45 93 c 4
 75 93 91 77 91 47 c 4
 91 17 75 1 45 1 c 4
 15 1 0 17 0 47 c 4
EndSplineSet
Validated: 1
EndChar

StartChar: comma
Encoding: 64 44 64
Width: 155
Flags: HW
HStem: 0 21G<30 60> 1 92<91.4531 143.374>
VStem: 0 91<4.62646 46 101 142.374> 57 34<17 77>
LayerCount: 2
Fore
SplineSet
51 88 m 2xa0
 61 105 74 113 88 113 c 0
 96 113 105 110 114 105 c 0
 130 95 138 83 138 69 c 0
 138 60 135 51 130 42 c 2
 59 -79 l 2
 49 -95 37 -103 23 -103 c 0
 14 -103 5 -100 -4 -95 c 0
 -20 -86 -28 -74 -28 -60 c 0
 -28 -52 -25 -43 -19 -33 c 2
 51 88 l 2xa0
EndSplineSet
Validated: 1
EndChar

StartChar: quotesingle
Encoding: 65 39 65
Width: 155
Flags: HW
HStem: 0 21G<30 60> 1 92<91.4531 143.374>
VStem: 0 91<4.62646 46 101 142.374> 57 34<17 77>
LayerCount: 2
Fore
SplineSet
0 583 m 2xa0
 0 613 15 629 45 629 c 0
 75 629 91 613 91 583 c 2
 91 443 l 2
 91 413 75 397 45 397 c 0
 15 397 0 413 0 443 c 2
 0 583 l 2xa0
EndSplineSet
Validated: 1
EndChar

StartChar: quotedbl
Encoding: 66 34 66
Width: 337
Flags: HW
HStem: 0 21G<30 60> 1 92<91.4531 143.374>
VStem: 0 91<4.62646 46 101 142.374> 57 34<17 77>
LayerCount: 2
Fore
SplineSet
182 583 m 2xa0
 182 613 197 629 227 629 c 0
 257 629 273 613 273 583 c 2
 273 443 l 2
 273 413 257 397 227 397 c 0
 197 397 182 413 182 443 c 2
 182 583 l 2xa0
0 583 m 2xa0
 0 613 15 629 45 629 c 0
 75 629 91 613 91 583 c 2
 91 443 l 2
 91 413 75 397 45 397 c 0
 15 397 0 413 0 443 c 2
 0 583 l 2xa0
EndSplineSet
Validated: 1
EndChar

StartChar: hyphen
Encoding: 67 45 67
Width: 337
Flags: HW
LayerCount: 2
Fore
SplineSet
45 308 m 4
 15 308 0 323 0 353 c 4
 0 383 15 399 45 399 c 6
 228 399 l 6
 258 399 273 383 273 353 c 4
 272 323 258 308 228 308 c 4
 45 308 l 4
EndSplineSet
Validated: 1
EndChar

StartChar: colon
Encoding: 68 58 68
Width: 155
Flags: HW
LayerCount: 2
Fore
SplineSet
0 351 m 0
 0 381 15 397 45 397 c 0
 75 397 91 381 91 351 c 0
 91 321 75 305 45 305 c 0
 15 305 0 321 0 351 c 0
0 167 m 4
 0 197 15 213 45 213 c 4
 75 213 91 197 91 167 c 4
 91 137 75 121 45 121 c 4
 15 121 0 137 0 167 c 4
EndSplineSet
Validated: 1
EndChar

StartChar: semicolon
Encoding: 69 59 69
Width: 155
Flags: HW
HStem: 0 21G<30 60> 1 92<91.4531 143.374>
VStem: 0 91<4.62646 46 101 142.374> 57 34<17 77>
LayerCount: 2
Fore
SplineSet
0 165 m 0
 0 195 15 211 45 211 c 0
 75 211 91 195 91 165 c 0
 91 135 75 119 45 119 c 0
 15 119 0 135 0 165 c 0
10 17 m 2xa0
 20 34 32 42 46 42 c 0
 54 42 63 39 72 34 c 0
 88 25 96 12 96 -2 c 0
 96 -10 94 -19 88 -29 c 2
 16 -149 l 2
 7 -165 -6 -174 -20 -174 c 0
 -28 -174 -37 -171 -47 -165 c 0
 -63 -156 -70 -144 -70 -130 c 0
 -70 -122 -68 -113 -62 -103 c 2
 10 17 l 2xa0
EndSplineSet
Validated: 1
EndChar

StartChar: exclam
Encoding: 70 33 70
Width: 155
Flags: HW
HStem: 0 21G<30 60> 1 92<91.4531 143.374>
VStem: 0 91<4.62646 46 101 142.374> 57 34<17 77>
LayerCount: 2
Fore
SplineSet
0 46 m 0
 0 76 15 92 45 92 c 0
 75 92 91 76 91 46 c 0
 91 16 75 0 45 0 c 0
 15 0 0 16 0 46 c 0
0 654 m 6xa0
 0 684 15 700 45 700 c 4
 75 700 91 684 91 654 c 6
 91 231 l 2
 91 201 75 185 45 185 c 0
 15 185 0 201 0 231 c 2
 0 654 l 6xa0
EndSplineSet
Validated: 1
EndChar

StartChar: question
Encoding: 71 63 71
Width: 337
Flags: HW
LayerCount: 2
Fore
SplineSet
91 46 m 0
 91 76 106 92 136 92 c 0
 166 92 182 76 182 46 c 0
 182 16 166 0 136 0 c 0
 106 0 91 16 91 46 c 0
182 191 m 2
 182 161 167 145 137 145 c 0
 107 145 91 161 91 191 c 2
 91 305 l 1
 92 330 104 350 136 350 c 1
 162 352 180 366 182 400 c 1
 182 563 l 2
 182 578 182 609 136 609 c 0
 92 609 91 581 91 565 c 0
 91 564 91 564 91 563 c 2
 91 444 l 2
 91 414 75 398 45 398 c 0
 15 398 0 414 0 444 c 2
 0 563 l 2
 0 685 90 700 136 700 c 0
 182 700 273 685 273 563 c 2
 273 400 l 1
 274 394 274 388 274 382 c 0
 274 335 249 307 227 303 c 1
 225 303 223 303 222 303 c 0
 199 303 184 296 182 261 c 1
 182 191 l 2
EndSplineSet
Validated: 1
EndChar

StartChar: at
Encoding: 72 64 72
Width: 611
Flags: HW
LayerCount: 2
Fore
SplineSet
91 47 m 4
 91 17 75 1 45 1 c 0
 15 1 0 17 0 47 c 0
 0 441 l 0
 0 563 91 579 137 579 c 0
 411 579 l 0
 457 579 547 564 547 442 c 2
 547 137 l 2
 547 15 457 0 411 0 c 0
 274 0 l 0
 183 0 138 46 138 122 c 0
 138 198 167 243 274 243 c 2
 320 243 l 1
 320 274 l 2
 320 289 305 304 290 304 c 2
 183 304 l 2
 153 304 138 320 138 350 c 0
 138 380 153 396 183 396 c 2
 290 396 l 2
 366 396 411 350 411 274 c 2
 411 91 l 0
 455 91 456 119 456 135 c 0
 456 136 456 136 456 137 c 2
 456 442 l 2
 456 443 456 443 456 444 c 0
 456 460 455 488 411 488 c 0
 137 488 l 0
 91 488 91 456 91 441 c 4
 91 47 l 4
274 91 m 0
 304 91 320 107 320 122 c 0
 320 137 304 152 274 152 c 0
 244 152 229 137 229 122 c 0
 229 107 244 91 274 91 c 0
EndSplineSet
Validated: 1
EndChar
